<svg version="1.1" id="Layer_1" xmlns="http://www.w3.org/2000/svg" xmlns:xlink="http://www.w3.org/1999/xlink" x="0px" y="0px"
	 width="100%" viewBox="0 0 1024 1008" enable-background="new 0 0 1024 1008" xml:space="preserve">
<path fill="var(--icon-color)" style="transition: fill 0.3s ease;"
	d="
M189.060516,589.085693 
	C173.516052,583.949158 158.551437,578.191345 143.151382,574.054443 
	C131.544952,570.936584 120.570030,566.381836 109.362785,562.330872 
	C99.842987,558.889832 92.354469,552.495544 86.110336,544.821350 
	C77.322098,534.020447 71.483040,521.723206 70.585472,507.623749 
	C70.023872,498.801819 71.820213,490.059723 72.711655,481.301758 
	C74.497169,463.759979 75.966080,446.157166 78.614975,428.739105 
	C82.194229,405.203461 84.602020,381.534729 87.679459,357.945221 
	C89.616035,343.100739 92.396347,328.751129 101.727974,316.413055 
	C114.787209,299.146515 132.346619,290.733856 153.624146,289.931030 
	C166.106445,289.460022 178.619980,289.750488 191.118729,289.824799 
	C194.633194,289.845673 196.600342,288.859070 198.259079,285.253082 
	C211.946396,255.497955 230.124268,228.707764 253.676666,205.911118 
	C275.837646,184.461288 300.943481,166.961609 329.241516,154.486008 
	C351.945923,144.476425 375.593964,137.934982 400.334045,134.456787 
	C432.765991,129.897202 465.171875,133.046570 497.579865,132.435486 
	C514.731445,132.112076 531.874878,132.654678 549.026062,132.518921 
	C561.242615,132.422195 573.483948,132.477280 585.803467,134.253098 
	C599.175476,136.180634 612.397522,138.362610 625.386536,141.942764 
	C639.173096,145.742752 652.317871,151.307877 665.391235,157.038635 
	C678.989075,162.999329 691.750183,170.573608 703.837402,179.013931 
	C718.013367,188.912750 731.372742,199.983475 742.995300,212.956100 
	C747.378235,217.848083 751.972046,222.551071 756.518555,227.392197 
	C758.448425,225.527023 757.862671,223.767044 757.878784,222.197968 
	C758.161926,194.539474 758.589844,166.880508 758.592590,139.221634 
	C758.595215,113.240242 758.106995,87.259056 757.897461,61.277275 
	C757.798706,49.033504 762.994202,43.873367 775.117615,43.881180 
	C802.617432,43.898899 830.117188,43.894405 857.617004,43.907608 
	C869.290283,43.913212 874.224426,48.919765 874.215027,60.720478 
	C874.152954,138.552979 874.120422,216.385544 873.954346,294.217834 
	C873.944092,299.024323 875.006287,302.362030 879.047302,305.659760 
	C894.360046,318.156281 901.149414,335.278900 903.012329,354.420135 
	C905.044495,375.300415 908.003967,396.041962 910.823486,416.818756 
	C914.602295,444.664307 918.781982,472.536499 920.619568,500.539673 
	C922.186035,524.410767 911.623413,543.804382 891.480286,557.397156 
	C888.037720,559.720215 884.566406,562.210083 880.439697,563.098572 
	C875.682068,564.122986 874.097839,566.710815 874.119629,571.557922 
	C874.241638,598.723328 874.008972,625.890076 874.015869,653.056335 
	C874.029846,708.222534 874.530640,763.393311 873.912109,818.551941 
	C873.740540,833.846069 871.264648,849.109253 865.825439,863.932739 
	C860.451111,878.579163 854.136536,892.593811 845.555298,905.493042 
	C840.626038,912.902649 834.737549,919.677124 828.743713,926.367004 
	C821.931946,933.969788 813.878357,939.992371 806.135437,946.378235 
	C798.972046,952.286133 790.505249,956.396362 782.367065,960.915588 
	C764.776123,970.683716 745.630615,974.576172 725.955322,977.565308 
	C703.331848,981.002197 681.417480,978.046448 659.762573,972.447327 
	C638.750916,967.014526 619.997131,956.663208 602.786133,943.401794 
	C584.042358,928.959473 569.131531,911.228271 557.977234,890.545105 
	C551.061096,877.720581 545.955872,864.025024 542.447876,849.737244 
	C538.746643,834.661926 538.710999,819.411194 538.717041,804.088928 
	C538.724304,785.757812 538.623657,767.426453 538.503540,749.095642 
	C538.455566,741.770569 542.154419,737.086914 549.264404,735.702209 
	C554.051025,734.769836 558.897461,734.957336 563.720398,734.947815 
	C587.553040,734.900696 611.385925,734.937622 635.218689,734.945740 
	C650.809814,734.951050 655.082214,739.150940 654.983459,754.915466 
	C654.906189,767.242554 654.612244,779.570801 654.229126,791.892761 
	C653.938416,801.244141 654.103271,810.656006 655.479370,819.815735 
	C657.099976,830.603149 662.196838,839.973877 670.286621,847.845398 
	C676.609863,853.998230 683.821655,857.995361 692.099121,860.237915 
	C704.768677,863.670532 717.248718,862.820374 728.985229,856.798767 
	C748.639038,846.715027 757.880005,830.213684 757.896118,808.308167 
	C757.944702,742.143250 758.004822,675.978333 758.045227,609.813416 
	C758.048645,604.229919 757.564514,603.858215 752.038147,605.621277 
	C738.605225,609.906677 725.082153,613.867371 711.715698,618.417175 
	C690.042725,625.794556 669.091553,623.449280 649.971436,609.978821 
	C649.161865,609.408447 648.443298,608.700195 647.722229,608.014404 
	C641.459900,602.058533 641.047058,602.301575 633.974609,607.300842 
	C616.880188,619.384155 599.581482,631.178406 582.374634,643.102966 
	C575.127441,648.125366 567.918884,653.203918 560.659241,658.208191 
	C558.929688,659.400269 558.520081,660.825439 558.744873,662.905090 
	C560.241943,676.757141 561.768250,690.600769 563.604797,704.416565 
	C564.354492,710.056641 565.713379,715.990906 562.502991,721.504639 
	C559.549988,726.576294 555.110168,729.053894 549.308960,729.056885 
	C513.309326,729.075378 477.309418,729.144470 441.310303,729.011353 
	C431.561249,728.975342 426.376434,723.527649 426.875122,713.897827 
	C427.365173,704.434570 427.937286,694.913330 429.489410,685.586609 
	C430.782318,677.817566 430.175629,669.947021 431.716064,662.253418 
	C432.140320,660.134583 430.972565,658.883972 429.316711,657.759888 
	C418.171021,650.192993 407.031830,642.615662 395.952972,634.951477 
	C382.695374,625.780029 369.449371,616.590088 356.298096,607.267395 
	C349.218353,602.248718 349.129608,601.999390 342.745239,607.347778 
	C323.434631,623.524719 301.912842,625.885071 278.571259,618.114136 
	C261.386475,612.392944 244.118256,606.922424 226.889893,601.331970 
	C214.408768,597.281921 201.931976,593.218445 189.060516,589.085693 
M554.009949,616.796265 
	C555.211304,620.938354 552.856018,625.786133 556.352051,629.782349 
	C557.616699,629.064331 558.661194,628.570496 559.600037,627.923340 
	C572.459045,619.058960 585.294861,610.160889 598.154541,601.297424 
	C606.786499,595.347961 615.427917,589.411804 624.108032,583.533081 
	C626.368042,582.002502 627.618713,580.215698 625.736328,577.773376 
	C621.628479,572.443726 619.856018,565.844177 616.184753,560.336426 
	C608.799072,549.256287 602.847351,537.355774 596.068237,525.930969 
	C588.099182,512.500671 580.836243,498.653229 572.987122,485.149475 
	C565.056396,471.505341 557.305908,457.767578 549.691589,443.944366 
	C541.910339,429.817993 534.772705,415.354309 526.388245,401.532166 
	C520.287354,391.474701 513.987000,381.472076 509.143219,370.654572 
	C500.817444,352.060822 502.924255,334.264923 513.228088,317.309662 
	C524.844238,298.194977 542.840149,290.145294 564.542236,290.086517 
	C628.866455,289.912262 693.191528,290.032745 757.516235,290.002167 
	C759.927917,290.001007 762.463318,290.580414 764.779541,289.210480 
	C764.803101,287.164398 763.728210,285.640228 762.927795,284.031860 
	C756.150391,270.413422 747.331482,258.128052 738.044250,246.163544 
	C723.739685,227.735077 706.641052,212.321075 687.537048,198.976837 
	C672.458191,188.444122 656.203491,180.109238 639.202820,173.435944 
	C626.570923,168.477524 613.384827,165.016541 599.944519,162.432632 
	C585.172241,159.592636 570.324402,157.527695 555.361938,157.427185 
	C511.382111,157.131729 467.393921,156.669357 423.421356,158.176819 
	C409.563385,158.651917 395.912048,161.140121 382.542725,164.275253 
	C371.327820,166.905167 360.277283,170.602951 349.407928,174.849030 
	C329.564423,182.600830 311.365021,193.049255 294.361786,205.642273 
	C270.822388,223.076172 251.556488,244.565903 236.244583,269.487732 
	C232.412354,275.725159 227.501953,281.604095 226.085739,289.013947 
	C227.720596,290.382538 229.277847,290.016174 230.734650,290.016205 
	C294.892456,290.017334 359.050415,290.063049 423.208008,289.939056 
	C438.804596,289.908905 453.178314,293.012482 465.539551,303.229736 
	C478.029022,313.552917 484.407410,326.969482 486.143890,342.770508 
	C487.858246,358.369904 481.408875,371.687317 473.971893,384.694916 
	C467.538483,395.947144 461.185150,407.245361 454.839111,418.547272 
	C448.248871,430.284180 441.791229,442.096191 435.125458,453.789795 
	C428.642883,465.161987 422.181976,476.571411 415.855988,488.003998 
	C409.192657,500.046295 402.381287,512.055969 395.668243,524.065735 
	C386.193024,541.017151 375.839020,557.493408 366.762360,574.689392 
	C363.176575,581.482666 363.711639,582.539246 370.294617,586.624084 
	C385.393219,595.992981 399.724213,606.503418 414.364838,616.553589 
	C421.010895,621.115906 427.716095,625.591919 435.092529,630.579041 
	C435.785919,625.853821 436.465027,622.129761 436.859283,618.375671 
	C438.230957,605.313293 438.955109,592.154663 440.981201,579.197693 
	C442.728180,568.026062 443.618134,556.803711 444.815063,545.596680 
	C445.750366,536.839417 446.583374,528.069519 447.323120,519.293518 
	C448.454071,505.876953 450.625702,492.583984 451.948273,479.180542 
	C452.910522,469.428955 453.378632,459.619720 454.711182,449.898529 
	C455.877411,441.390869 457.213959,432.886658 457.873291,424.334564 
	C458.650269,414.257416 463.989441,408.831787 474.188080,408.817413 
	C488.519409,408.797180 502.850830,408.823975 517.182190,408.822540 
	C525.760925,408.821686 532.345581,414.838898 533.036804,423.424713 
	C533.290710,426.578461 533.178589,429.766785 533.524475,432.907288 
	C538.075073,474.232117 542.640747,515.555359 547.283325,556.869934 
	C549.493896,576.541748 550.438416,596.355652 554.009949,616.796265 
M573.427307,863.045288 
	C576.457275,870.972656 580.703308,878.211304 585.176697,885.424438 
	C595.485291,902.046692 608.392700,915.846558 624.528442,927.098938 
	C648.754028,943.992798 675.419556,952.393677 704.730957,953.033508 
	C726.016418,953.498169 746.468628,949.156555 765.596252,940.144653 
	C795.704834,925.958923 818.693298,904.129211 833.695618,874.049072 
	C842.142517,857.112793 847.751587,839.359009 847.908447,820.550049 
	C848.579224,740.087952 847.270264,659.617737 848.644470,579.155518 
	C848.709717,575.336121 847.754944,574.152283 843.645264,575.548828 
	C825.381958,581.754822 807.089478,587.905518 788.621338,593.456726 
	C783.985107,594.850281 783.160156,596.872009 783.166321,601.096680 
	C783.269531,671.577148 783.246948,742.057861 783.223877,812.538513 
	C783.222595,816.523499 783.448303,820.524597 782.437988,824.468323 
	C778.611572,839.404602 773.210815,853.273926 761.960449,864.694702 
	C751.189026,875.629028 738.549377,883.737976 724.080444,886.549805 
	C689.904602,893.191406 661.789062,881.992798 641.443970,853.258606 
	C633.912415,842.621521 630.041687,830.299316 629.439880,817.429871 
	C628.646851,800.470520 628.993713,783.455383 628.977844,766.464111 
	C628.974792,763.182190 628.524475,761.022400 624.476013,761.047363 
	C605.815186,761.162354 587.153076,761.171570 568.492065,761.084045 
	C564.835388,761.066833 564.018494,762.797974 564.045654,766.023010 
	C564.152161,778.685303 564.116821,791.348999 564.101440,804.012146 
	C564.087952,815.169556 563.898315,826.307739 566.166626,837.354858 
	C567.911560,845.852966 571.275208,853.855896 573.427307,863.045288 
M879.172363,375.007568 
	C878.227295,364.074707 877.687317,353.059174 873.958740,342.594452 
	C869.827698,331.000122 862.335815,322.520172 850.371765,318.688507 
	C840.849609,315.638855 830.857849,316.537598 821.136292,316.465790 
	C764.325134,316.046112 707.510132,316.090515 650.696472,316.059113 
	C621.539856,316.042969 592.383057,316.240417 563.226379,316.249146 
	C550.502808,316.252960 540.387085,321.140808 534.353027,332.465332 
	C528.732422,343.013977 529.104309,353.904541 535.005554,364.427124 
	C541.584778,376.158569 548.859741,387.552063 554.657349,399.655243 
	C560.709106,412.288971 567.985901,424.208771 574.653015,436.461914 
	C588.853333,462.560272 603.988586,488.149689 618.726196,513.955872 
	C629.999878,533.696472 641.562744,553.280212 652.426392,573.244263 
	C663.652527,593.874573 681.075012,600.467712 703.260498,593.851868 
	C722.825256,588.017517 742.093140,581.192749 761.528015,574.916382 
	C784.119141,567.620544 806.781128,560.542664 829.350586,553.180969 
	C842.458496,548.905396 855.326782,543.866394 868.516663,539.877930 
	C884.665527,534.994629 896.752014,516.895203 894.630066,500.167664 
	C892.494629,483.334137 890.790588,466.446411 888.780212,449.596405 
	C885.845520,424.999481 883.459106,400.331482 879.172363,375.007568 
M446.759552,380.316071 
	C448.351440,377.582886 450.082001,374.919830 451.506927,372.102203 
	C454.717987,365.752747 458.930328,359.892914 460.314209,352.659668 
	C463.796906,334.457062 447.807098,316.078827 432.803162,316.855591 
	C427.569824,317.126495 422.189484,317.021332 416.876831,316.966278 
	C392.408875,316.712799 367.938049,316.373322 343.470856,316.514130 
	C319.684082,316.651001 295.898743,316.471680 272.107941,316.792480 
	C232.130539,317.331573 192.137253,317.378204 152.159378,316.900909 
	C133.011475,316.672302 118.143669,333.854218 115.610023,348.631744 
	C113.475746,361.080017 111.922287,373.663239 110.510437,386.201416 
	C106.414497,422.576080 100.682045,458.748566 97.441071,495.230438 
	C95.975967,511.722382 100.028976,525.416626 113.625717,535.714661 
	C118.610138,539.489746 124.655472,540.067871 130.177292,542.201660 
	C141.632736,546.628296 153.305130,550.548767 164.973907,554.248169 
	C176.336945,557.850586 187.547409,561.949768 199.010223,565.285461 
	C211.429031,568.899414 223.594604,573.378540 235.894669,577.406921 
	C249.285828,581.792664 262.689819,586.140442 276.117859,590.411682 
	C282.440277,592.422729 288.594421,594.905334 295.304260,595.733337 
	C311.562012,597.739563 325.203979,593.171204 334.424744,579.349182 
	C340.862457,569.698975 346.075104,559.227295 351.766296,549.084167 
	C362.339600,530.240051 372.547180,511.181793 383.520020,492.574158 
	C390.597046,480.573059 397.645599,468.554932 404.475922,456.417938 
	C418.587433,431.342804 432.440521,406.122192 446.759552,380.316071 
M514.499939,702.708130 
	C520.329468,702.718201 526.159119,702.761658 531.988403,702.728821 
	C537.781494,702.696167 538.177673,701.927856 537.243408,696.262634 
	C535.405212,685.115845 533.758911,673.943604 532.887939,662.656250 
	C531.775452,648.239319 530.145264,633.875549 528.072571,619.552185 
	C526.430725,608.206421 525.325928,596.751343 524.337280,585.356018 
	C523.335999,573.814636 522.492798,562.165039 521.139893,550.715576 
	C519.551331,537.271362 517.207520,523.806946 516.107056,510.334900 
	C514.131165,486.146820 509.730469,462.227325 508.636383,437.966583 
	C508.526093,435.521332 507.455261,434.326202 504.842987,434.595459 
	C498.531769,435.245972 492.201416,435.156128 485.886688,434.668213 
	C483.589691,434.490753 482.444214,435.302795 482.187500,437.581329 
	C480.846436,449.484619 479.049957,461.354706 478.213135,473.292511 
	C476.887543,492.202332 474.294647,510.955750 472.031647,529.748962 
	C470.044281,546.253296 468.713409,562.822205 466.378876,579.300476 
	C464.189240,594.755981 463.454010,610.411804 461.669922,625.932373 
	C460.304565,637.810608 459.197083,649.714600 457.352173,661.555481 
	C455.539520,673.189209 455.067688,685.027161 453.813141,696.754639 
	C453.207550,702.415588 453.252136,702.712891 459.037170,702.716492 
	C477.191437,702.727905 495.345734,702.710327 514.499939,702.708130 
M842.712891,290.585175 
	C848.576843,291.994049 847.939941,287.917603 847.943359,284.384399 
	C848.011414,214.440582 848.048889,144.496689 848.228760,74.553162 
	C848.238525,70.738846 846.656128,70.134483 843.472961,70.147171 
	C825.485657,70.218918 807.494324,70.364265 789.512268,70.042557 
	C784.264954,69.948669 783.159302,71.729347 783.172852,76.640503 
	C783.340576,137.431595 783.387939,198.223541 783.185242,259.014343 
	C783.163757,265.453583 784.401489,271.039276 787.791443,276.408783 
	C789.552307,279.197937 791.059814,282.260864 792.039673,285.400513 
	C793.258057,289.304413 795.471313,290.245667 799.419006,290.223999 
	C813.559937,290.146240 827.710876,289.321472 842.712891,290.585175 
z"/>
<path fill="var(--icon-color)" style="transition: fill 0.3s ease;"
	d="
M818.469177,526.394531 
	C807.853638,530.995178 796.973877,533.565369 786.394653,537.019104 
	C762.238953,544.905029 737.986084,552.493225 713.773926,560.206238 
	C707.924377,562.069702 702.070679,563.920532 696.234802,565.826172 
	C688.085388,568.487305 682.499939,566.937439 678.291809,559.628235 
	C673.577209,551.439392 668.837646,543.236206 664.210083,535.002258 
	C659.426453,526.490784 654.441223,518.028748 649.480774,509.582397 
	C639.824463,493.140442 630.399475,476.550751 621.109436,459.916565 
	C614.312378,447.746185 607.276062,435.679443 600.525330,423.476440 
	C590.075378,404.586273 579.354980,385.834381 568.929443,366.921661 
	C562.584900,355.412140 568.615173,344.939606 581.948303,344.922516 
	C656.594299,344.826904 731.240479,344.843903 805.886597,344.812134 
	C814.883850,344.808319 823.882202,344.638367 832.878052,344.733337 
	C842.308594,344.832916 846.935974,349.484497 848.340637,358.800629 
	C850.521179,373.262421 852.983154,387.677338 854.499878,402.235901 
	C855.999268,416.626556 857.198547,431.073273 859.417175,445.357544 
	C861.895813,461.316559 863.190735,477.411469 865.677979,493.355713 
	C867.689758,506.252197 865.182556,511.508179 853.082153,515.519775 
	C841.737183,519.280823 830.641418,523.917053 818.469177,526.394531 
M628.940796,421.588440 
	C630.326538,423.843811 631.787537,426.056793 633.085571,428.361542 
	C640.256165,441.093933 647.125427,454.004425 654.599670,466.555084 
	C663.353699,481.254578 671.086243,496.529022 680.213867,511.022766 
	C684.892334,518.451721 688.550720,526.518799 692.776367,534.239319 
	C694.378662,537.166809 696.299194,539.144104 700.369629,537.774109 
	C716.569031,532.321655 732.941528,527.342834 749.144836,521.959229 
	C774.044067,513.686279 799.199768,506.204773 823.981934,497.583130 
	C828.063904,496.162994 832.185974,494.855499 836.308411,493.555908 
	C839.008484,492.704712 839.963867,490.961365 839.451477,488.213806 
	C838.810791,484.778381 838.164551,481.337463 837.717102,477.873566 
	C833.411926,444.549225 829.159668,411.218079 824.863831,377.892548 
	C823.898682,370.405151 823.847961,370.404724 816.263611,370.394043 
	C746.455933,370.295807 676.648254,370.197632 606.840576,370.118530 
	C605.073914,370.116547 603.116089,369.656494 601.847107,371.454315 
	C601.565186,372.993622 602.584656,374.011993 603.163574,375.177612 
	C610.933777,390.820190 620.283203,405.586700 628.940796,421.588440 
z"/>
<path fill="var(--icon-color)" style="transition: fill 0.3s ease;"
	d="
M392.361877,419.319824 
	C383.094666,436.014618 373.517273,452.112457 364.573730,468.582825 
	C358.571869,479.635803 351.895142,490.368164 345.664185,501.326874 
	C336.216705,517.942627 326.861908,534.611084 317.410095,551.224365 
	C314.953674,555.541931 312.669556,560.042725 309.024170,563.512756 
	C302.574249,569.652466 295.377411,566.308167 288.773834,564.239136 
	C266.907562,557.388184 245.229721,549.938782 223.414917,542.920044 
	C194.316010,533.557678 165.158417,524.377625 136.021667,515.133118 
	C128.558258,512.765137 123.724785,505.612732 124.945511,497.687073 
	C128.769409,472.859894 129.820328,447.686523 134.013687,422.934845 
	C137.711441,401.108398 139.291962,379.024292 142.931641,357.206757 
	C144.132080,350.011078 150.162964,344.784271 158.080566,344.771423 
	C191.405594,344.717285 224.730804,344.753571 258.055939,344.764008 
	C308.043945,344.779663 358.032013,344.774292 408.019958,344.837616 
	C422.316589,344.855713 428.351288,354.635345 421.620209,367.289307 
	C414.674194,380.347382 407.782715,393.448669 399.910217,405.999115 
	C397.265594,410.215179 395.010376,414.675507 392.361877,419.319824 
M370.722656,405.282135 
	C376.980988,394.192413 383.239288,383.102692 389.397614,372.190155 
	C387.841766,369.907990 385.867950,370.382843 384.109711,370.376160 
	C363.788483,370.298950 343.467072,370.212280 323.145782,370.229187 
	C300.996979,370.247589 278.848267,370.430328 256.699493,370.435852 
	C228.381378,370.442932 200.063171,370.361603 171.745178,370.267090 
	C168.637634,370.256714 167.351471,371.574554 167.002731,374.667786 
	C166.052490,383.096130 164.797653,391.489655 163.721100,399.904297 
	C159.941269,429.448730 156.197235,458.997803 152.398071,488.539734 
	C152.106644,490.806000 152.547806,492.839325 154.820084,493.357208 
	C158.449417,494.184387 161.517929,496.249847 165.004272,497.348846 
	C178.458298,501.589996 191.977371,505.649719 205.303802,510.263397 
	C217.510178,514.489380 229.831558,518.456848 242.125046,522.298340 
	C255.726700,526.548523 269.284424,530.979065 282.866791,535.300964 
	C293.808502,538.782593 293.728790,539.043945 300.084656,529.386108 
	C300.632812,528.553162 301.126984,527.683228 301.619263,526.815247 
	C314.152832,504.713989 326.666687,482.601562 339.218536,460.510712 
	C349.567566,442.296783 359.960846,424.107971 370.722656,405.282135 
z"/>
</svg>